#!OML:ASF H:\ColoradoDance\Project 1\Capture day 1\Session 8\male.ASF
:FULLY-SPECIFIED
:DEGREES
145
upperback -3.991430 1.803080 -2.418350
rfoot -14.771900 -8.277230
lradius 21.432301
lthumb 6.965290 419.617004
rradius 31.435400
lwrist -16.434099
rhand -35.122101 -0.286425
rhumerus -49.047199 1.865880 -92.717102
lowerneck -2.407890 8.523000 10.762000
lhand -19.352100 -330.247986
ltibia 20.024599
head 4.008940 5.448520 -5.617180
rwrist 18.285299
lfingers 7.125020
rtoes -13.450800
lowerback -0.096598 1.276820 -1.865810
rfingers 7.125020
lclavicle -0.000000 0.000000
upperneck 7.076670 11.719400 -14.549100
rfemur -23.881201 5.801420 8.462510
thorax -4.033670 1.009210 -1.516760
rclavicle -0.000000 0.000000
rtibia 32.023399
lfoot -15.121900 14.182000
lhumerus -43.095001 10.218000 59.261600
rthumb -8.262630 -30.104799
root 6.324520 19.411301 -28.347601 1267.969971 4.308290 -899.953979
ltoes 4.160130
lfemur 0.783627 -22.757700 -8.048980
146
upperback -3.581540 3.761730 -2.363860
rfoot -31.091499 -22.208700
lradius 30.318300
lthumb 27.639400 369.571991
rradius 22.660299
lwrist -13.341600
rhand -22.476500 3.913790
rhumerus -58.076599 -4.348110 -91.702599
lowerneck 2.766790 13.600000 16.412901
lhand 2.141000 -378.417999
ltibia 37.952202
head 4.506230 9.624000 -5.395890
rwrist 9.341510
lfingers 7.125020
rtoes -2.802090
lowerback 0.678432 2.858370 2.606700
rfingers 7.125020
lclavicle 0.000000 -0.000000
upperneck 7.196490 19.150200 -12.601000
rfemur -15.326300 -14.676900 23.929300
thorax -3.746800 1.731000 -4.039270
rclavicle 0.000000 -0.000000
rtibia 37.191002
lfoot -9.718150 29.816999
lhumerus -28.169500 -13.615300 81.291199
rthumb 3.948660 -26.029400
root 8.846920 19.652700 -29.535700 1265.560059 -69.558899 -894.283997
ltoes 27.150101
lfemur -15.992300 2.958440 -6.760810
147
upperback -3.681730 -1.183550 0.054508
rfoot -21.922100 -18.062099
lradius 37.189201
lthumb 8.215930 393.989014
rradius 12.860400
lwrist -5.940940
rhand -40.776001 -0.845044
rhumerus -70.656197 -12.179900 -70.698502
lowerneck -1.936500 9.148110 12.415700
lhand -18.056400 -355.830994
ltibia 51.937599
head 3.223760 6.128880 -4.269760
rwrist 16.619200
lfingers 7.125020
rtoes -30.057800
lowerback 0.207810 -0.903543 1.809470
rfingers 7.125020
lclavicle 0.000000 0.000000
upperneck 5.242690 12.316500 -9.369620
rfemur -14.165900 -19.437901 31.820999
thorax -3.940430 -0.657545 -0.913052
rclavicle 0.000000 0.000000
rtibia 42.844501
lfoot -4.916620 20.404499
lhumerus -26.276199 -23.602800 87.182404
rthumb -13.715800 -30.372999
root 9.394620 19.323500 -30.216700 1270.760010 -141.457001 -900.281006
ltoes 0.741942
lfemur -23.725201 24.182301 -9.237820
148
upperback -3.240470 -1.091180 0.091280
rfoot -2.244550 5.531260
lradius 39.094799
lthumb 7.622950 401.330994
rradius 13.414600
lwrist -5.104550
rhand -22.530100 -57.621300
rhumerus -68.125397 -10.426500 -47.032398
lowerneck -4.084910 -1.367400 4.677270
lhand -18.670799 -348.511993
ltibia 48.126999
head 1.012170 -1.024360 -2.451950
rwrist 31.232901
lfingers 7.125020
rtoes -32.809399
lowerback 4.155990 -0.739666 -1.579230
rfingers 7.125020
lclavicle 0.000000 -0.000000
upperneck 1.291630 -1.948400 -5.044370
rfemur -35.027500 -32.506699 21.110001
thorax -5.661450 -0.475189 1.078310
rclavicle 0.000000 -0.000000
rtibia 81.125397
lfoot -15.340400 3.764300
lhumerus -17.609400 -7.814250 72.433998
rthumb 3.896870 -87.565399
root 9.207360 18.525200 -30.113600 1270.040039 -183.979004 -895.911987
ltoes -10.855300
lfemur -29.900400 20.104900 -15.276700
149
upperback -2.455310 1.934820 1.834940
rfoot -10.716300 -23.332300
lradius 28.364100
lthumb -1.638730 399.884003
rradius 33.431301
lwrist -7.004150
rhand -36.369801 -7.657590
rhumerus -36.748901 -4.041510 -50.789501
lowerneck -4.824170 -5.605040 3.231920
lhand -28.261801 -350.089996
ltibia 56.206699
head -0.260016 -3.884410 -2.234580
rwrist 3.873230
lfingers 7.125020
rtoes -10.813300
lowerback 6.390700 1.293610 1.052970
rfingers 7.125020
lclavicle 0.000000 -0.000000
upperneck -2.342090 -7.674380 -5.145740
rfemur -29.947800 -20.521500 -7.724980
thorax -6.177050 0.953595 1.096580
rclavicle 0.000000 -0.000000
rtibia 51.509701
lfoot -13.370600 -5.264920
lhumerus -22.061701 5.606390 50.713799
rthumb -9.466600 -37.424999
root 6.994920 17.259399 -30.085199 1272.239990 -194.177002 -901.671997
ltoes -14.771300
lfemur -42.726700 23.641899 -2.990400
150
upperback -3.393120 2.096880 -0.021153
rfoot 0.715653 -16.002100
lradius 24.055599
lthumb 4.814600 395.743011
rradius 41.884602
lwrist -11.694700
rhand -33.503601 0.249848
rhumerus -15.138800 9.188530 -69.957901
lowerneck -4.421410 -6.187720 0.924707
lhand -21.579700 -354.182007
ltibia 15.084000
head 0.336852 -4.160020 -0.925917
rwrist 7.814170
lfingers 7.125020
rtoes -17.856300
lowerback 5.711510 1.491090 1.113080
rfingers 7.125020
lclavicle 0.000000 0.000000
upperneck -0.832212 -8.280080 -2.142000
rfemur -44.509499 -35.569698 4.015910
thorax -6.705650 0.983529 -0.885641
rclavicle 0.000000 0.000000
rtibia 48.600201
lfoot 8.863300 32.842899
lhumerus -41.005699 17.325001 35.752300
rthumb -6.700360 -29.624100
root 1.506360 17.046499 -29.624599 1273.420044 -196.522995 -902.593994
ltoes -5.947760
lfemur -23.699800 -5.940690 22.690201
151
upperback -2.781330 0.554337 0.525989
rfoot -8.669390 -19.947701
lradius 24.527901
lthumb 13.777800 408.970001
rradius 36.010502
lwrist -15.769500
rhand -25.439501 6.133680
rhumerus -20.364401 -0.783286 -71.698799
lowerneck -5.076280 -6.676390 -1.759940
lhand -12.289700 -340.553986
ltibia 74.380898
head 1.746790 -4.401660 -0.033712
rwrist 14.229900
lfingers 7.125020
rtoes -3.386290
lowerback 6.569850 0.043817 4.940900
rfingers 7.125020
lclavicle -0.000000 -0.000000
upperneck 2.637940 -8.778920 -0.182169
rfemur -56.517799 -37.129501 26.470400
thorax -6.570050 0.076026 -2.291780
rclavicle -0.000000 -0.000000
rtibia 59.890400
lfoot -11.758200 15.234300
lhumerus -30.933300 6.769700 56.973900
rthumb 1.087090 -23.843300
root -3.306470 17.734400 -30.271200 1269.770020 -203.365005 -904.958984
ltoes -27.696600
lfemur -36.262798 14.051300 -0.481619
152
upperback -3.422950 -1.496000 1.916930
rfoot 5.326610 -17.260099
lradius 35.450802
lthumb 9.178390 416.721985
rradius 22.319401
lwrist -4.095120
rhand -32.259602 16.618401
rhumerus -36.129799 -4.848170 -64.317703
lowerneck -6.396970 -2.380380 2.318610
lhand -17.059000 -333.058990
ltibia 46.630299
head 2.378880 -1.655020 -1.562330
rwrist 9.123380
lfingers 7.125020
rtoes -0.479420
lowerback 4.693730 -1.456350 4.531250
rfingers 7.125020
lclavicle 0.000000 0.000000
upperneck 4.287230 -3.200130 -3.222200
rfemur -57.478500 -22.213301 32.475601
thorax -6.275850 -0.886524 -0.388057
rclavicle 0.000000 0.000000
rtibia 46.481499
lfoot -8.633200 -9.106890
lhumerus -30.003099 -1.939520 73.921402
rthumb -5.499360 -13.290200
root -5.334950 18.362400 -32.593300 1269.770020 -195.692993 -906.943970
ltoes -17.971500
lfemur -10.787800 8.112620 -31.323799
153
upperback -3.287080 0.173476 3.725130
rfoot -5.426820 -11.400300
lradius 33.533600
lthumb 16.021999 418.481995
rradius 17.590799
lwrist -13.213600
rhand -30.182100 -5.238860
rhumerus -36.130001 -9.601520 -50.596600
lowerneck -7.801540 0.895928 5.712250
lhand -9.960160 -330.876007
ltibia 41.730099
head 2.122100 0.334144 -3.048130
rwrist 14.053000
lfingers 7.125020
rtoes -3.509390
lowerback 4.589200 -0.452459 7.831480
rfingers 7.125020
lclavicle -0.000000 -0.000000
upperneck 2.080600 0.910239 -6.312910
rfemur -45.760601 -4.532930 12.048700
thorax -6.030470 -0.153008 -0.503588
rclavicle -0.000000 -0.000000
rtibia 63.786598
lfoot -31.384899 12.422900
lhumerus -36.586899 -0.380062 74.045601
rthumb -3.493290 -35.189999
root -6.132210 18.132299 -36.030201 1272.530029 -185.274994 -912.047974
ltoes 21.742399
lfemur -23.725700 2.129320 -33.080399
154
upperback -4.011390 4.360660 3.504370
rfoot 14.110900 6.581990
lradius 20.442400
lthumb 12.200300 416.894989
rradius 25.200600
lwrist -21.943899
rhand -34.551201 -5.205580
rhumerus -28.871901 -4.065960 -56.926201
lowerneck -7.484280 2.743920 7.144210
lhand -13.926100 -332.730011
ltibia 38.590900
head 2.694370 1.564090 -2.316840
rwrist 7.589690
lfingers 7.125020
rtoes -29.819201
lowerback 5.376560 2.559480 8.281060
rfingers 7.125020
lclavicle -0.000000 0.000000
upperneck 3.622180 3.160530 -3.660580
rfemur -4.212300 -18.793699 20.913900
thorax -6.929130 1.830990 -1.414340
rclavicle -0.000000 0.000000
rtibia 62.693802
lfoot -24.530199 15.157700
lhumerus -48.558998 10.012900 54.886002
rthumb -7.711590 -35.044998
root -5.306320 18.185301 -38.636002 1273.410034 -169.289001 -915.804016
ltoes 26.806400
lfemur -35.058998 14.737300 -36.125702
